# xmcd
#
# Track frame offsets:
#       150
#       14932
#       29624
#       43376
#       61367
#       78635
#       97342
#       111620
#       129321
#       146634
#       164740
#       179323
#       196908
#       211904
#       228209
#       244177
#       260665
#       276145
#       292525
#       309554
#       329082
#
# Disc length: 4605 seconds
#
# Revision: 1
# Processed by: cddbd v1.5.2PL0 Copyright (c) Steve Scherf et al.
# Submitted via: WaveLab 4.01
#
DISCID=4f11fb15
DTITLE=Promo Only Canada - Mainstream Radio October 2006
DYEAR=2006
DGENRE=Top 40
TTITLE0=Nelly Furtado - Maneater
TTITLE1=Beyonce - Ring The Alarm
TTITLE2=Jesse McCartney - Right Where You Want Me
TTITLE3=The Fray - How To Save A Life
TTITLE4=Danity Kane - Show Stopper
TTITLE5=Hedley - Gunnin'
TTITLE6=Paris Hilton - Nothing In This World
TTITLE7=Rihanna - We Ride
TTITLE8=Ludacris ft. Pharrell - Money Maker
TTITLE9=Christina Aguilera - Hurt
TTITLE10=Gym Class Heroes - The Queen And I
TTITLE11=James Blunt - Goodbye My Lover
TTITLE12=John Mayer - Waiting On The World To Change
TTITLE13=New Found Glory - It's Not Your Fault
TTITLE14=Akon ft. Eminem - Smack That
TTITLE15=Jessica Simpson - I Belong To Me
TTITLE16=Yung Jac - I Know You See It
TTITLE17=The Killers - When You Were Young
TTITLE18=Five For Fighting - The Riddle (You And I)
TTITLE19=Young Dro ft. T.I - Shoulder Lean
TTITLE20=Chris Rice - When Did You Fall (In Love With Me)
EXTD=
EXTT0=
EXTT1=
EXTT2=
EXTT3=
EXTT4=
EXTT5=
EXTT6=
EXTT7=
EXTT8=
EXTT9=
EXTT10=
EXTT11=
EXTT12=
EXTT13=
EXTT14=
EXTT15=
EXTT16=
EXTT17=
EXTT18=
EXTT19=
EXTT20=
PLAYORDER=
